<svg width="1072" height="400" viewBox="0 0 1072 400" fill="none" xmlns="http://www.w3.org/2000/svg">
<g clip-path="url(#clip0_20_3000)">
<path d="M375.48 83.2793H358.565C357.747 83.2793 357.075 83.9469 357.075 84.7597V186.124C357.075 190.072 358.156 193.149 360.318 195.355C362.48 197.561 365.664 198.664 369.842 198.664H432.39C433.208 198.664 433.88 197.996 433.88 197.184V182.35C433.88 181.538 433.208 180.87 432.39 180.87H378.489C377.671 180.87 377 180.202 377 179.39V84.7597C377 83.9469 376.328 83.2793 375.51 83.2793H375.48Z" fill="white"></path>
<path d="M481.616 127.953C481.616 124.876 481.207 122.409 480.36 120.522C479.542 118.665 478.169 117.3 476.299 116.487C474.429 115.675 471.888 115.239 468.674 115.239H452.373C451.555 115.239 450.883 115.907 450.883 116.72V129.898C450.883 130.711 451.555 131.379 452.373 131.379H460.728C461.546 131.379 462.218 132.046 462.218 132.859V182.467H462.159V197.126C462.159 197.939 462.831 198.606 463.649 198.606H480.126C480.944 198.606 481.616 197.939 481.616 197.126V182.467V127.924V127.953Z" fill="white"></path>
<path d="M552.023 113.933C544.836 113.933 538.76 115.443 533.764 118.461C531.105 120.087 528.797 122.148 526.869 124.615C526.081 125.631 524.474 125.312 524.211 124.064L522.575 116.4C522.429 115.704 521.815 115.239 521.114 115.239H506.127C505.221 115.239 504.52 116.023 504.637 116.923L506.887 132.946C506.887 132.946 506.887 133.091 506.887 133.149V197.155C506.887 197.968 507.559 198.636 508.377 198.636H524.649C525.467 198.636 526.139 197.968 526.139 197.155V154.949C526.139 146.386 527.717 140.058 530.872 135.994C534.027 131.93 539.023 129.898 545.888 129.898C552.753 129.898 557.603 131.872 560.817 135.82C564.03 139.768 565.637 145.863 565.637 154.107V197.126C565.637 197.939 566.309 198.607 567.127 198.607H583.224C584.042 198.607 584.714 197.939 584.714 197.126V152.133C584.714 139.506 582.172 129.956 577.089 123.541C572.006 117.126 563.65 113.904 552.052 113.904L552.023 113.933Z" fill="white"></path>
<path d="M668.705 118.897C662.337 115.588 654.507 113.962 645.246 113.962C635.985 113.962 628.156 115.762 621.524 119.303C614.892 122.874 609.867 127.924 606.42 134.456C603.002 140.987 601.278 148.592 601.278 157.271C601.278 165.951 603.002 173.033 606.42 179.535C609.838 186.009 614.892 191.059 621.524 194.601C628.156 198.171 636.219 199.971 645.743 199.971C657.019 199.971 666.31 197.678 673.613 193.062C680.391 188.795 684.948 182.699 687.344 174.833C687.636 173.904 686.877 172.946 685.913 172.946H669.523C668.881 172.946 668.355 173.353 668.121 173.933C666.894 177.097 664.557 179.71 661.08 181.771C657.253 184.035 652.316 185.138 646.239 185.138C640.805 185.138 636.219 183.977 632.479 181.683C628.711 179.39 625.877 176.081 623.949 171.785C622.722 169.056 621.875 165.98 621.436 162.554C621.32 161.683 622.021 160.9 622.926 160.9H688.396C688.513 160.232 688.6 159.594 688.659 158.926C688.717 158.258 688.746 157.649 688.746 157.097V155.123C688.629 146.676 686.877 139.332 683.429 133.12C680.011 126.908 675.103 122.148 668.764 118.868L668.705 118.897ZM631.048 131.814C634.641 129.231 639.257 127.953 644.896 127.953C650.534 127.953 654.828 129.027 658.422 131.176C662.015 133.324 664.557 136.517 666.047 140.726C666.689 142.554 667.157 144.557 667.449 146.734C667.566 147.605 666.865 148.389 665.959 148.389H623.481C622.547 148.389 621.816 147.518 622.021 146.618C622.371 145.022 622.809 143.512 623.335 142.061C624.884 137.823 627.455 134.427 631.048 131.843V131.814Z" fill="white"></path>
<path d="M782.7 104.412C782.7 104.412 782.729 104.354 782.758 104.325C784.949 101.277 786.439 98.9259 787.199 97.2713C787.958 95.6167 788.367 93.817 788.367 91.8431C788.367 89.0855 787.403 86.9955 785.475 85.4861C783.547 84.0057 780.626 83.251 776.769 83.251H704.288C703.47 83.251 702.798 83.9186 702.798 84.7604L702.945 98.1131C702.945 98.9259 703.616 99.5935 704.434 99.5935H760.672C761.899 99.5935 762.6 100.958 761.87 101.945L708.115 175.065C707.882 175.501 707.648 175.878 707.356 176.226C707.064 176.546 706.772 176.952 706.45 177.387C704.142 180.58 702.506 182.99 701.571 184.644C700.637 186.299 700.169 188.012 700.169 189.753C700.169 192.395 700.987 194.543 702.652 196.168C704.318 197.823 706.976 198.636 710.628 198.636H786.439C787.257 198.636 787.929 197.968 787.929 197.155V183.802C787.929 182.99 787.257 182.322 786.439 182.322L728.478 182.206C727.251 182.206 726.55 180.842 727.28 179.855L781.473 106.038L782.758 104.412H782.7Z" fill="white"></path>
<path d="M867.743 118.897C861.374 115.588 853.545 113.962 844.284 113.962C835.023 113.962 827.193 115.762 820.562 119.303C813.93 122.874 808.905 127.924 805.458 134.456C802.04 140.987 800.316 148.592 800.316 157.271C800.316 165.951 802.04 173.033 805.458 179.535C808.876 186.009 813.93 191.059 820.562 194.601C827.193 198.171 835.257 199.971 844.78 199.971C856.057 199.971 865.347 197.678 872.651 193.062C879.429 188.795 883.986 182.699 886.382 174.833C886.674 173.904 885.914 172.946 884.95 172.946H868.561C867.918 172.946 867.392 173.353 867.159 173.933C865.932 177.097 863.594 179.71 860.118 181.771C856.291 184.035 851.354 185.138 845.277 185.138C839.843 185.138 835.257 183.977 831.517 181.683C827.748 179.39 824.915 176.081 822.987 171.785C821.76 169.056 820.912 165.98 820.474 162.554C820.357 161.683 821.058 160.9 821.964 160.9H887.433C887.55 160.232 887.638 159.594 887.696 158.926C887.755 158.258 887.784 157.649 887.784 157.097V155.123C887.667 146.676 885.914 139.332 882.467 133.12C879.049 126.908 874.141 122.148 867.801 118.868L867.743 118.897ZM830.086 131.814C833.679 129.231 838.295 127.953 843.933 127.953C849.572 127.953 853.866 129.027 857.46 131.176C861.053 133.324 863.595 136.517 865.084 140.726C865.727 142.554 866.195 144.557 866.487 146.734C866.604 147.605 865.902 148.389 864.997 148.389H822.519C821.584 148.389 820.854 147.518 821.058 146.618C821.409 145.022 821.847 143.512 822.373 142.061C823.921 137.823 826.492 134.427 830.086 131.843V131.814Z" fill="white"></path>
<path d="M941.918 118.548C938.968 120.58 936.484 123.512 934.498 127.315C933.855 128.563 931.985 128.273 931.722 126.908L929.707 116.458C929.561 115.762 928.947 115.268 928.246 115.268H901.544C900.726 115.268 900.054 115.936 900.054 116.778L900.2 129.811C900.2 130.624 900.872 131.263 901.69 131.263H912.237C912.996 131.263 913.61 131.814 913.726 132.54L914.048 134.949C914.048 134.949 914.048 135.065 914.048 135.152V181.538C914.048 182.351 913.376 183.019 912.558 183.019H907.328C906.51 183.019 905.839 183.686 905.839 184.499V197.184C905.839 197.997 906.51 198.665 907.328 198.665H942.882C943.7 198.665 944.372 197.997 944.372 197.184V184.499C944.372 183.686 943.7 183.019 942.882 183.019H934.761C933.943 183.019 933.271 182.351 933.271 181.538V159.942C933.271 152.685 933.884 147.257 935.111 143.628C936.338 140 938.471 137.474 941.568 136.052C944.664 134.63 949.368 133.904 955.678 133.904H969.292C970.11 133.904 970.782 133.236 970.782 132.424V115.936C970.782 115.123 970.11 114.456 969.292 114.456H957.519C951.092 114.456 945.921 115.82 941.918 118.577V118.548Z" fill="white"></path>
<path d="M1066.4 134.543C1063.07 128.07 1058.16 123.019 1051.65 119.39C1045.13 115.762 1037.22 113.962 1027.93 113.962C1018.64 113.962 1010.86 115.762 1004.29 119.39C997.718 123.019 992.722 128.07 989.363 134.543C985.974 141.016 984.308 148.447 984.308 156.778C984.308 165.109 986.003 172.888 989.363 179.361C992.722 185.834 997.689 190.885 1004.2 194.514C1010.72 198.142 1018.64 199.942 1027.93 199.942C1037.22 199.942 1045.13 198.113 1051.65 194.514C1058.16 190.885 1063.1 185.834 1066.4 179.361C1069.73 172.888 1071.37 165.341 1071.37 156.778C1071.37 148.215 1069.7 141.016 1066.4 134.543ZM1045.66 176.749C1041.57 181.48 1035.61 183.832 1027.75 183.832C1022.67 183.832 1018.31 182.787 1014.72 180.697C1011.13 178.607 1008.44 175.53 1006.69 171.466C1004.9 167.402 1004.03 162.525 1004.03 156.807C1004.03 148.36 1006.04 141.742 1010.08 137.039C1014.11 132.308 1020.01 129.956 1027.75 129.956C1032.95 129.956 1037.33 131.03 1040.93 133.178C1044.52 135.326 1047.24 138.374 1049.05 142.322C1050.89 146.27 1051.79 151.117 1051.79 156.836C1051.79 165.399 1049.75 172.046 1045.66 176.778V176.749Z" fill="white"></path>
<path d="M469.434 106.531C476.162 106.531 481.616 101.489 481.616 95.2683C481.616 89.0481 476.162 84.0056 469.434 84.0056C462.706 84.0056 457.251 89.0481 457.251 95.2683C457.251 101.489 462.706 106.531 469.434 106.531Z" fill="white"></path>
<path d="M819.831 246.647L814.193 243.135C812.148 241.858 811.885 240.9 811.885 240.116C811.885 237.3 815.099 237.068 816.092 237.068C818.429 236.952 820.737 238.171 822.724 239.623C823.512 240.203 824.652 239.623 824.652 238.607V233.353C824.652 232.917 824.418 232.482 824.038 232.279C815.625 227.489 804.143 231.437 804.523 240.203C804.523 244.122 806.305 246.967 810.278 249.376L815.887 252.888C820.416 255.268 819.189 259.652 814.193 259.681C810.249 259.448 808.584 258.258 806.831 256.778C806.042 256.11 804.815 256.691 804.815 257.707V262.728C804.815 263.686 805.078 264.093 805.487 264.296C807.62 265.37 810.132 266.386 814.281 266.473C827.515 266.241 830.027 252.308 819.861 246.647H819.831Z" fill="white"></path>
<path d="M848.812 237.591H854.83C855.561 237.591 856.174 238.171 856.174 238.926V264.702C856.174 265.428 856.758 266.038 857.518 266.038H861.929C862.66 266.038 863.273 265.457 863.273 264.702V238.926C863.273 238.2 863.857 237.591 864.617 237.591H870.548C871.278 237.591 871.891 237.01 871.891 236.255V232.075C871.891 231.35 871.307 230.74 870.548 230.74H848.812C848.082 230.74 847.468 231.321 847.468 232.075V236.255C847.468 236.981 848.052 237.591 848.812 237.591Z" fill="white"></path>
<path d="M914.632 253.265C914.983 261.654 901.895 261.625 902.245 253.265V232.075C902.245 231.35 901.661 230.74 900.901 230.74H896.49C895.76 230.74 895.146 231.321 895.146 232.075V253.004C895.146 261.219 900.375 266.502 908.439 266.502C916.502 266.502 921.702 261.19 921.702 253.004V232.075C921.702 231.35 921.118 230.74 920.358 230.74H915.947C915.216 230.74 914.603 231.321 914.603 232.075V253.265H914.632Z" fill="white"></path>
<path d="M961.317 230.74H949.689C948.959 230.74 948.346 231.321 948.346 232.075V264.702C948.346 265.428 948.93 266.038 949.689 266.038H961.317C984.455 266.473 984.455 230.305 961.317 230.769V230.74ZM955.415 238.926C955.415 238.2 956 237.59 956.759 237.59H961.258C974.843 237.097 974.843 259.651 961.258 259.158H956.759C956.029 259.158 955.415 258.577 955.415 257.823V238.897V238.926Z" fill="white"></path>
<path d="M1009.32 230.74H1004.93C1004.19 230.74 1003.59 231.338 1003.59 232.075V264.673C1003.59 265.411 1004.19 266.008 1004.93 266.008H1009.32C1010.06 266.008 1010.66 265.411 1010.66 264.673V232.075C1010.66 231.338 1010.06 230.74 1009.32 230.74Z" fill="white"></path>
<path d="M1050.42 230.537C1042.77 231.814 1037.04 237.503 1035.76 245.109C1031.72 269.202 1067.04 275.007 1071.66 251.64C1073.85 238.607 1063.54 228.36 1050.42 230.537ZM1053.72 259.506C1039.17 259.361 1039.29 237.474 1053.72 237.271C1068.3 237.387 1068.3 259.419 1053.72 259.506Z" fill="white"></path>
<path d="M268.468 30.2759V270.856C268.468 273.672 265.4 275.414 262.976 274.02L251.757 267.605L236.887 259.071C235.748 258.433 235.047 257.213 235.047 255.907V34.4849C235.047 31.6692 231.979 29.9275 229.554 31.3209L218.336 37.736L201.625 47.3151L184.915 56.8942L168.204 66.4733L151.494 76.0524L118.072 95.2106L101.362 104.79L84.651 114.369L67.9403 123.948L51.2297 133.527L36.3303 142.061C35.191 142.7 33.7887 142.7 32.6785 142.061L17.7792 133.527L6.59008 127.112C4.13607 125.719 4.13607 122.206 6.59008 120.784L17.7792 114.369L34.4898 104.79L51.2005 95.2106L67.9111 85.6315L84.6217 76.0524L101.332 66.4733L118.043 56.8942L134.754 47.3151L151.464 37.736L168.175 28.1569L184.886 18.5778L201.596 8.99866L216.466 0.464551C217.606 -0.174056 219.008 -0.174056 220.147 0.464551L235.017 8.99866L266.627 27.1119C267.767 27.7505 268.468 28.9696 268.468 30.2759Z" fill="#E21C39"></path>
<path d="M34.4022 163.571V388.157C34.4022 389.899 32.5032 391.002 30.9549 390.131L17.6915 382.526L2.12026 373.614C1.41911 373.208 0.980896 372.453 0.980896 371.64V147.025C0.980896 145.283 2.87983 144.18 4.4282 145.051L17.6915 152.656L33.2628 161.568C33.964 161.974 34.4022 162.729 34.4022 163.542V163.571Z" fill="#E21C39"></path>
<path d="M218.336 60.842V244.47C218.336 246.212 216.437 247.315 214.889 246.444L201.625 238.839L186.054 229.928C185.353 229.521 184.915 228.766 184.915 227.954V118.317C184.915 116.575 183.016 115.472 181.467 116.343L168.204 123.948L151.494 133.527L134.783 143.106L118.072 152.685L101.362 162.264L85.7903 171.176C85.0892 171.582 84.2128 171.582 83.4824 171.176L67.9111 162.264L54.6478 154.659C53.1286 153.788 53.1286 151.582 54.6478 150.711L67.9111 143.106L84.6218 133.527L101.332 123.948L118.043 114.369L134.754 104.79L151.464 95.2106L168.175 85.6315L184.886 76.0524L201.596 66.4733L214.86 58.8681C216.379 57.9973 218.307 59.1003 218.307 60.842H218.336Z" fill="#E21C39"></path>
<path d="M248.31 284.761C249.829 285.632 249.829 287.838 248.31 288.708L235.047 296.314L218.336 305.893L201.625 315.472L184.915 325.051L168.204 334.63L151.493 344.209L134.783 353.788L118.072 363.367L101.362 372.946L84.6509 382.526L67.9403 392.105L54.677 399.71C53.1578 400.581 51.2297 399.478 51.2297 397.736V175.762C51.2297 174.02 53.1286 172.917 54.677 173.788L67.9403 181.393L83.5116 190.305C84.2127 190.711 84.6509 191.466 84.6509 192.279V340.232C84.6509 341.974 86.5499 343.077 88.0982 342.206L101.362 334.601L118.072 325.022L151.493 305.864L168.204 296.285L184.915 286.706L201.625 277.126L217.197 268.215C217.898 267.809 218.774 267.809 219.475 268.215L235.047 277.126L248.31 284.732V284.761Z" fill="#E21C39"></path>
<path d="M198.149 256.023C199.668 256.894 199.668 259.1 198.149 259.971L184.886 267.576L168.175 277.155L151.464 286.734L134.754 296.313L118.043 305.893L104.78 313.498C103.26 314.369 101.332 313.266 101.332 311.524V278.491C101.332 277.678 101.771 276.923 102.472 276.517L118.043 267.605L134.754 258.026L151.464 248.447L167.036 239.536C167.737 239.129 168.613 239.129 169.343 239.536L184.915 248.447L198.178 256.052L198.149 256.023Z" fill="#E21C39"></path>
</g>
<defs>
<clipPath id="clip0_20_3000">
<rect width="1071" height="400" fill="white" transform="translate(0.980896)"></rect>
</clipPath>
</defs>
</svg>