<svg width="322" height="322" viewBox="0 0 322 322" fill="none" xmlns="http://www.w3.org/2000/svg">
<rect width="322" height="322" rx="161" fill="#E2D6A6"/>
<path d="M271.791 198.056C259.691 169.697 213.938 194.275 161.001 194.275C107.685 194.275 62.31 169.697 50.21 198.056C36.2193 225.281 79.7037 274.059 161.001 274.059C242.297 274.059 285.782 225.281 271.791 198.056Z" fill="#45471D"/>
<path d="M161 47.1844C108.063 47.5625 69.8721 70.6281 75.1658 83.4844C89.5346 130.75 94.8283 173.478 90.2908 220.744C137.935 232.087 184.444 231.331 231.71 219.987C227.172 172.722 232.466 130.75 246.835 83.4844C252.128 70.6281 214.316 47.5625 161 47.1844Z" fill="#45471D"/>
<path d="M91.425 193.141C92.1813 202.594 87.2656 220.744 87.2656 220.744C131.128 262.716 190.872 262.716 234.734 220.744C234.734 220.744 230.575 202.972 230.575 193.141C185.956 233.6 136.044 233.6 91.425 193.141Z" fill="#AEAE53"/>
<path d="M247.969 79.325C247.969 97.0969 209.022 111.088 161 111.088C112.978 111.088 74.0312 96.7188 74.0312 79.325C74.0312 61.5531 112.978 47.1844 161 47.1844C209.022 47.1844 247.969 61.5531 247.969 79.325Z" fill="#70742F"/>
</svg>
